# xmcd
#
# Track frame offsets: 
#        150
#        24555
#        43360
#        60397
#        76376
#        96319
#        120993
#        146973
#        169504
#        186592
#        207344
#        230129
#        254314
#        279053
#        312396
#        321008
#
# Disc length: 4534 seconds
#
# Revision: 0
# Processed by: cddbd v1.5.2PL0 Copyright (c) Steve Scherf et al.
# Submitted via: ExactAudioCopy v1.0b3
#
DISCID=e711b410
DTITLE=Mike-D (BOSSHOG CORLEONE) - His GreatestFlows [CD1]
DYEAR=2003
DGENRE=Rap/Hiphop
TTITLE0=Swang Down - Mike D,Fat Pat,Mr. 3-2 
TTITLE1=Brick Licka - Mike D,Clay Doe
TTITLE2=Menageatrios (Remix) - Mike D,Big Pokey,Mr. 3-2
TTITLE3=Safe Sex - Mike D,Baby B Doll,Young Hogg
TTITLE4=Riding High - Mike D,T-Pop,Big Pokey,Lil O,Willean,Grace,E.S.G
TTITLE4=
TTITLE5=Niggaz Can't Fuck With Me - Mike D,Baby B Doll
TTITLE6=Leaning On A Switch - Mike D,Lil KeKe,Big Pokey
TTITLE7=Power Up (Remix) - Mike D,D-Gotti,Ronnie Spencer,D-Reck
TTITLE8=All Around The World - Mike D,Mr. 3-2,Clay Doe
TTITLE9=Get Wired Up - Mike D,Dead End BG'z
TTITLE10=Love Da Game - Mike D,6-4,Pimp Money,Hard Jarv
TTITLE11=Call Up On Drank - Mike D,DJ Screw,Fat Pat
TTITLE12=Too Hott - Mike D,S.U.C.
TTITLE13=No Love - Mike D,Big Pokey,Baby B Doll,Duke
TTITLE14=Don't Mind Dying - Mike D,Mista MJ,Den-Den,Money 
TTITLE15=Watch Yo Enemy - Mike D,DJ Screw
EXTD=
EXTT0=
EXTT1=
EXTT2=
EXTT3=
EXTT4=
EXTT5=
EXTT6=
EXTT7=
EXTT8=
EXTT9=
EXTT10=
EXTT11=
EXTT12=
EXTT13=
EXTT14=
EXTT15=
PLAYORDER=
